<?xml version="1.0" encoding="UTF-8"?>
<svg xmlns="http://www.w3.org/2000/svg" xmlns:xlink="http://www.w3.org/1999/xlink" width="61pt" height="9pt" viewBox="0 0 61 9" version="1.1">
<g id="surface1">
<path style=" stroke:none;fill-rule:nonzero;fill:rgb(40%,40%,40%);fill-opacity:1;" d="M 1.332031 6.082031 L 1.332031 8.441406 L 0.199219 8.441406 L 0.199219 2.300781 L 1.332031 2.300781 L 1.332031 2.9375 C 1.417969 2.640625 1.609375 2.472656 1.804688 2.339844 C 1.976562 2.171875 2.230469 2.136719 2.496094 2.136719 C 2.976562 2.105469 3.386719 2.34375 3.660156 2.75 C 3.929688 3.15625 4.078125 3.734375 4.078125 4.480469 C 4.0625 5.222656 3.9375 5.8125 3.65625 6.214844 C 3.371094 6.59375 2.976562 6.820312 2.457031 6.820312 C 2.214844 6.796875 2.011719 6.761719 1.824219 6.636719 C 1.605469 6.480469 1.472656 6.328125 1.332031 6.078125 Z M 2.945312 4.480469 C 2.941406 4.039062 2.875 3.71875 2.734375 3.472656 C 2.558594 3.21875 2.394531 3.105469 2.140625 3.105469 C 1.890625 3.085938 1.695312 3.230469 1.546875 3.472656 C 1.398438 3.707031 1.332031 4.054688 1.332031 4.480469 C 1.296875 4.898438 1.402344 5.246094 1.546875 5.488281 C 1.6875 5.71875 1.890625 5.855469 2.140625 5.855469 C 2.390625 5.851562 2.589844 5.734375 2.734375 5.488281 C 2.84375 5.230469 2.945312 4.910156 2.945312 4.480469 "/>
<path style=" stroke:none;fill-rule:nonzero;fill:rgb(40%,40%,40%);fill-opacity:1;" d="M 7.140625 4.644531 C 6.664062 4.644531 6.335938 4.699219 6.148438 4.808594 C 5.957031 4.894531 5.867188 5.105469 5.867188 5.367188 C 5.855469 5.558594 5.933594 5.726562 6.0625 5.84375 C 6.183594 5.925781 6.371094 6.015625 6.59375 6.015625 C 6.90625 5.992188 7.1875 5.902344 7.371094 5.675781 C 7.542969 5.4375 7.648438 5.128906 7.648438 4.722656 L 7.648438 4.644531 Z M 8.777344 4.210938 L 8.777344 6.742188 L 7.648438 6.742188 L 7.648438 6.222656 C 7.5 6.390625 7.320312 6.5625 7.097656 6.667969 C 6.855469 6.765625 6.632812 6.824219 6.363281 6.824219 C 5.84375 6.796875 5.453125 6.695312 5.167969 6.429688 C 4.871094 6.140625 4.738281 5.800781 4.738281 5.328125 C 4.738281 4.789062 4.90625 4.445312 5.234375 4.199219 C 5.566406 3.9375 6.078125 3.835938 6.769531 3.835938 L 7.648438 3.835938 L 7.648438 3.59375 C 7.644531 3.363281 7.570312 3.21875 7.421875 3.109375 C 7.246094 2.976562 7.058594 2.945312 6.769531 2.945312 C 6.480469 2.945312 6.222656 2.984375 5.960938 3.0625 C 5.691406 3.132812 5.425781 3.261719 5.144531 3.429688 L 5.144531 2.460938 C 5.398438 2.347656 5.660156 2.269531 5.925781 2.21875 C 6.160156 2.140625 6.472656 2.136719 6.769531 2.136719 C 7.5 2.105469 8.03125 2.289062 8.328125 2.589844 C 8.597656 2.875 8.777344 3.433594 8.777344 4.210938 "/>
<path style=" stroke:none;fill-rule:nonzero;fill:rgb(40%,40%,40%);fill-opacity:1;" d="M 13.234375 6.503906 C 13.039062 6.589844 12.828125 6.691406 12.601562 6.742188 C 12.355469 6.796875 12.136719 6.824219 11.875 6.824219 C 11.171875 6.796875 10.648438 6.617188 10.261719 6.203125 C 9.867188 5.769531 9.683594 5.21875 9.683594 4.484375 C 9.664062 3.738281 9.878906 3.175781 10.265625 2.761719 C 10.644531 2.339844 11.195312 2.140625 11.882812 2.140625 C 12.105469 2.105469 12.351562 2.164062 12.570312 2.21875 C 12.78125 2.246094 13.015625 2.351562 13.234375 2.464844 L 13.234375 3.511719 C 13.0625 3.359375 12.871094 3.28125 12.664062 3.214844 C 12.445312 3.121094 12.242188 3.109375 12.019531 3.109375 C 11.601562 3.085938 11.332031 3.226562 11.125 3.464844 C 10.886719 3.695312 10.8125 4.046875 10.8125 4.484375 C 10.785156 4.914062 10.917969 5.265625 11.125 5.503906 C 11.304688 5.71875 11.632812 5.855469 12.019531 5.855469 C 12.222656 5.851562 12.464844 5.820312 12.664062 5.753906 C 12.855469 5.683594 13.058594 5.585938 13.234375 5.453125 L 13.234375 6.503906 "/>
<path style=" stroke:none;fill-rule:nonzero;fill:rgb(40%,40%,40%);fill-opacity:1;" d="M 14.460938 0.847656 L 17.695312 0.847656 L 17.695312 1.816406 L 15.433594 1.816406 L 15.433594 2.972656 C 15.492188 2.925781 15.625 2.90625 15.730469 2.890625 C 15.808594 2.859375 15.953125 2.867188 16.070312 2.867188 C 16.636719 2.859375 17.117188 3.050781 17.476562 3.414062 C 17.820312 3.753906 18.015625 4.253906 18.015625 4.835938 C 17.988281 5.417969 17.820312 5.933594 17.433594 6.289062 C 17.011719 6.632812 16.511719 6.824219 15.839844 6.824219 C 15.589844 6.796875 15.339844 6.804688 15.082031 6.761719 C 14.8125 6.714844 14.566406 6.660156 14.300781 6.582031 L 14.300781 5.53125 C 14.496094 5.609375 14.738281 5.71875 14.964844 5.773438 C 15.183594 5.816406 15.417969 5.855469 15.648438 5.855469 C 16.046875 5.851562 16.359375 5.769531 16.570312 5.59375 C 16.769531 5.40625 16.886719 5.171875 16.886719 4.839844 C 16.871094 4.503906 16.78125 4.292969 16.566406 4.109375 C 16.34375 3.90625 16.074219 3.835938 15.722656 3.835938 C 15.484375 3.804688 15.304688 3.863281 15.09375 3.914062 C 14.867188 3.945312 14.675781 4.050781 14.460938 4.15625 L 14.460938 0.84375 "/>
<path style=" stroke:none;fill-rule:nonzero;fill:rgb(40%,40%,40%);fill-opacity:1;" d="M 22.332031 4.640625 C 22.296875 4.28125 22.265625 4.058594 22.136719 3.871094 C 22.007812 3.675781 21.828125 3.59375 21.601562 3.59375 C 21.355469 3.574219 21.199219 3.683594 21.070312 3.871094 C 20.929688 4.046875 20.878906 4.3125 20.878906 4.640625 C 20.863281 4.941406 20.941406 5.230469 21.070312 5.414062 C 21.1875 5.578125 21.375 5.695312 21.601562 5.695312 C 21.808594 5.679688 22.007812 5.601562 22.136719 5.414062 C 22.265625 5.207031 22.332031 4.972656 22.332031 4.640625 Z M 23.058594 6.339844 L 22.25 6.339844 L 22.25 6.023438 C 22.148438 6.132812 22.039062 6.261719 21.914062 6.324219 C 21.757812 6.363281 21.628906 6.421875 21.445312 6.421875 C 21.03125 6.394531 20.703125 6.257812 20.449219 5.929688 C 20.191406 5.574219 20.070312 5.175781 20.070312 4.640625 C 20.058594 4.074219 20.195312 3.675781 20.445312 3.351562 C 20.695312 3.023438 21.03125 2.863281 21.445312 2.863281 C 21.621094 2.859375 21.78125 2.898438 21.917969 2.960938 C 22.027344 3.019531 22.164062 3.117188 22.25 3.238281 L 22.25 3.078125 C 22.246094 2.714844 22.15625 2.453125 21.964844 2.261719 C 21.761719 2.066406 21.503906 1.976562 21.148438 1.976562 C 20.613281 1.964844 20.183594 2.21875 19.847656 2.710938 C 19.507812 3.175781 19.34375 3.835938 19.34375 4.621094 C 19.339844 5.414062 19.539062 6.09375 19.933594 6.578125 C 20.328125 7.050781 20.855469 7.308594 21.511719 7.308594 C 21.691406 7.285156 21.917969 7.273438 22.113281 7.203125 C 22.28125 7.117188 22.496094 7.035156 22.675781 6.902344 L 23.035156 7.617188 C 22.820312 7.730469 22.59375 7.859375 22.34375 7.929688 C 22.089844 7.96875 21.828125 8.035156 21.539062 8.035156 C 20.621094 8.003906 19.894531 7.726562 19.347656 7.109375 C 18.800781 6.472656 18.53125 5.667969 18.53125 4.621094 C 18.53125 3.574219 18.777344 2.78125 19.265625 2.167969 C 19.746094 1.546875 20.402344 1.25 21.210938 1.25 C 21.753906 1.246094 22.230469 1.417969 22.5625 1.753906 C 22.882812 2.085938 23.058594 2.550781 23.058594 3.128906 L 23.058594 6.339844 "/>
<path style=" stroke:none;fill-rule:nonzero;fill:rgb(40%,40%,40%);fill-opacity:1;" d="M 27.757812 3.511719 C 27.621094 3.355469 27.480469 3.277344 27.308594 3.210938 C 27.113281 3.121094 26.949219 3.109375 26.746094 3.109375 C 26.492188 3.085938 26.28125 3.152344 26.097656 3.242188 C 25.890625 3.300781 25.769531 3.460938 25.667969 3.632812 C 25.59375 3.707031 25.558594 3.863281 25.535156 4.011719 C 25.511719 4.136719 25.496094 4.386719 25.496094 4.6875 L 25.496094 6.742188 L 24.367188 6.742188 L 24.367188 2.300781 L 25.496094 2.300781 L 25.496094 2.929688 C 25.59375 2.648438 25.789062 2.484375 26.023438 2.347656 C 26.230469 2.207031 26.539062 2.140625 26.855469 2.140625 C 27.007812 2.109375 27.171875 2.160156 27.324219 2.203125 C 27.449219 2.222656 27.621094 2.304688 27.761719 2.382812 L 27.761719 3.511719 "/>
<path style=" stroke:none;fill-rule:nonzero;fill:rgb(40%,40%,40%);fill-opacity:1;" d="M 28.824219 2.300781 L 31.085938 2.300781 L 31.085938 5.855469 L 32.539062 5.855469 L 32.539062 6.742188 L 28.5 6.742188 L 28.5 5.855469 L 29.953125 5.855469 L 29.953125 3.1875 L 28.824219 3.1875 Z M 29.953125 0.199219 L 31.085938 0.199219 L 31.085938 1.574219 L 29.953125 1.574219 L 29.953125 0.199219 "/>
<path style=" stroke:none;fill-rule:nonzero;fill:rgb(40%,40%,40%);fill-opacity:1;" d="M 36.835938 6.503906 C 36.636719 6.589844 36.425781 6.691406 36.203125 6.742188 C 35.953125 6.796875 35.734375 6.824219 35.476562 6.824219 C 34.773438 6.796875 34.25 6.617188 33.863281 6.203125 C 33.464844 5.769531 33.28125 5.21875 33.28125 4.484375 C 33.265625 3.738281 33.476562 3.175781 33.867188 2.761719 C 34.246094 2.339844 34.796875 2.140625 35.484375 2.140625 C 35.703125 2.105469 35.949219 2.164062 36.171875 2.21875 C 36.382812 2.246094 36.613281 2.351562 36.835938 2.464844 L 36.835938 3.511719 C 36.660156 3.359375 36.472656 3.28125 36.265625 3.214844 C 36.046875 3.121094 35.84375 3.109375 35.621094 3.109375 C 35.203125 3.085938 34.933594 3.226562 34.726562 3.464844 C 34.484375 3.695312 34.414062 4.046875 34.414062 4.484375 C 34.386719 4.914062 34.515625 5.265625 34.726562 5.503906 C 34.902344 5.71875 35.234375 5.855469 35.621094 5.855469 C 35.824219 5.851562 36.066406 5.820312 36.265625 5.753906 C 36.457031 5.683594 36.65625 5.585938 36.835938 5.453125 L 36.835938 6.503906 "/>
<path style=" stroke:none;fill-rule:nonzero;fill:rgb(40%,40%,40%);fill-opacity:1;" d="M 41.777344 6.503906 C 41.492188 6.589844 41.226562 6.691406 40.945312 6.742188 C 40.660156 6.796875 40.363281 6.824219 40.050781 6.824219 C 39.296875 6.796875 38.730469 6.625 38.332031 6.226562 C 37.902344 5.796875 37.738281 5.25 37.738281 4.496094 C 37.738281 3.753906 37.929688 3.195312 38.304688 2.773438 C 38.660156 2.339844 39.203125 2.140625 39.855469 2.140625 C 40.507812 2.105469 41.027344 2.328125 41.390625 2.710938 C 41.738281 3.070312 41.9375 3.628906 41.9375 4.324219 L 41.9375 4.804688 L 38.867188 4.804688 C 38.859375 5.136719 38.976562 5.421875 39.1875 5.59375 C 39.382812 5.75 39.710938 5.855469 40.128906 5.855469 C 40.371094 5.851562 40.675781 5.820312 40.941406 5.757812 C 41.207031 5.6875 41.488281 5.59375 41.78125 5.449219 L 41.78125 6.5 Z M 40.808594 3.914062 C 40.777344 3.628906 40.71875 3.449219 40.558594 3.3125 C 40.386719 3.152344 40.15625 3.109375 39.84375 3.109375 C 39.558594 3.085938 39.335938 3.179688 39.167969 3.320312 C 38.988281 3.433594 38.898438 3.660156 38.867188 3.921875 L 40.808594 3.914062 "/>
<path style=" stroke:none;fill-rule:nonzero;fill:rgb(40%,40%,40%);fill-opacity:1;" d="M 43.910156 6.742188 L 45.203125 6.742188 L 45.203125 5.289062 L 43.910156 5.289062 Z M 43.910156 6.742188 "/>
<path style=" stroke:none;fill-rule:nonzero;fill:rgb(40%,40%,40%);fill-opacity:1;" d="M 51.277344 6.503906 C 50.992188 6.589844 50.726562 6.691406 50.445312 6.742188 C 50.160156 6.796875 49.863281 6.824219 49.550781 6.824219 C 48.796875 6.796875 48.230469 6.625 47.832031 6.226562 C 47.402344 5.796875 47.238281 5.25 47.238281 4.496094 C 47.238281 3.753906 47.429688 3.195312 47.804688 2.773438 C 48.160156 2.339844 48.703125 2.140625 49.355469 2.140625 C 50.007812 2.105469 50.527344 2.328125 50.890625 2.710938 C 51.238281 3.070312 51.4375 3.628906 51.4375 4.324219 L 51.4375 4.804688 L 48.367188 4.804688 C 48.359375 5.136719 48.476562 5.421875 48.6875 5.59375 C 48.882812 5.75 49.210938 5.855469 49.628906 5.855469 C 49.871094 5.851562 50.175781 5.820312 50.441406 5.757812 C 50.707031 5.6875 50.988281 5.59375 51.28125 5.449219 L 51.28125 6.5 Z M 50.308594 3.914062 C 50.277344 3.628906 50.21875 3.449219 50.058594 3.3125 C 49.886719 3.152344 49.65625 3.109375 49.34375 3.109375 C 49.058594 3.085938 48.835938 3.179688 48.667969 3.320312 C 48.488281 3.433594 48.398438 3.660156 48.367188 3.921875 L 50.308594 3.914062 "/>
<path style=" stroke:none;fill-rule:nonzero;fill:rgb(40%,40%,40%);fill-opacity:1;" d="M 54.605469 2.878906 L 54.605469 0.605469 L 55.734375 0.605469 L 55.734375 6.746094 L 54.605469 6.746094 L 54.605469 6.046875 C 54.457031 6.304688 54.320312 6.496094 54.128906 6.628906 C 53.902344 6.730469 53.703125 6.824219 53.441406 6.824219 C 52.9375 6.800781 52.546875 6.621094 52.269531 6.210938 C 51.980469 5.78125 51.855469 5.226562 51.855469 4.480469 C 51.847656 3.714844 51.996094 3.148438 52.277344 2.746094 C 52.542969 2.339844 52.960938 2.140625 53.480469 2.140625 C 53.699219 2.109375 53.925781 2.203125 54.109375 2.324219 C 54.273438 2.421875 54.460938 2.632812 54.605469 2.878906 Z M 52.988281 4.480469 C 52.972656 4.898438 53.058594 5.246094 53.203125 5.488281 C 53.324219 5.71875 53.542969 5.855469 53.792969 5.855469 C 54.023438 5.851562 54.242188 5.734375 54.386719 5.488281 C 54.515625 5.230469 54.605469 4.910156 54.605469 4.480469 C 54.582031 4.039062 54.53125 3.71875 54.386719 3.472656 C 54.222656 3.21875 54.042969 3.105469 53.792969 3.105469 C 53.523438 3.085938 53.347656 3.230469 53.203125 3.472656 C 53.035156 3.707031 52.988281 4.054688 52.988281 4.480469 "/>
<path style=" stroke:none;fill-rule:nonzero;fill:rgb(40%,40%,40%);fill-opacity:1;" d="M 56.882812 5.148438 L 56.882812 2.300781 L 58.011719 2.300781 L 58.011719 4.976562 C 57.984375 5.28125 58.058594 5.515625 58.152344 5.652344 C 58.238281 5.785156 58.398438 5.855469 58.613281 5.855469 C 58.804688 5.851562 59 5.765625 59.121094 5.582031 C 59.214844 5.386719 59.304688 5.144531 59.304688 4.816406 L 59.304688 2.300781 L 60.433594 2.300781 L 60.433594 6.742188 L 59.304688 6.742188 L 59.304688 6.042969 C 59.199219 6.292969 59.082031 6.484375 58.882812 6.621094 C 58.667969 6.730469 58.445312 6.824219 58.167969 6.824219 C 57.730469 6.796875 57.421875 6.683594 57.207031 6.402344 C 56.964844 6.101562 56.882812 5.703125 56.882812 5.148438 "/>
</g>
</svg>
