<?xml version="1.0" encoding="UTF-8"?>
<svg xmlns="http://www.w3.org/2000/svg" xmlns:xlink="http://www.w3.org/1999/xlink" width="167pt" height="167pt" viewBox="0 0 167 167" version="1.1">
<g id="surface1">
<path style=" stroke:none;fill-rule:nonzero;fill:rgb(100%,100%,100%);fill-opacity:1;" d="M 2 164 L 164 164 L 164 2 L 2 2 Z M 2 164 "/>
<path style="fill:none;stroke-width:0.8;stroke-linecap:butt;stroke-linejoin:round;stroke:rgb(41.1%,41.1%,41.1%);stroke-opacity:1;stroke-miterlimit:10;" d="M 243 364.5 L 405 364.5 " transform="matrix(1,0,0,-1,-241,407)"/>
<path style="fill:none;stroke-width:0.8;stroke-linecap:butt;stroke-linejoin:round;stroke:rgb(41.1%,41.1%,41.1%);stroke-opacity:1;stroke-miterlimit:10;" d="M 364.5 243 L 364.5 405 " transform="matrix(1,0,0,-1,-241,407)"/>
<path style="fill:none;stroke-width:4;stroke-linecap:round;stroke-linejoin:round;stroke:rgb(9.4%,45.5%,80.4%);stroke-opacity:1;stroke-miterlimit:10;" d="M 243 359.832031 L 243.335938 359.804688 M 243.335938 359.804688 L 245.015625 359.664062 M 245.015625 359.664062 L 245.492188 359.621094 M 245.492188 359.621094 L 246.058594 359.570312 M 246.058594 359.570312 L 247.304688 359.460938 M 247.304688 359.460938 L 247.984375 359.398438 M 247.984375 359.398438 L 248.800781 359.320312 M 248.800781 359.320312 L 249.582031 359.246094 M 249.582031 359.246094 L 250.476562 359.15625 M 250.476562 359.15625 L 251.570312 359.046875 M 251.570312 359.046875 L 251.847656 359.015625 M 251.847656 359.015625 L 252.96875 358.898438 M 254.097656 358.777344 L 252.96875 358.898438 M 255.460938 358.621094 L 254.363281 358.746094 M 254.363281 358.746094 L 254.097656 358.777344 M 256.332031 358.519531 L 255.460938 358.621094 M 257.953125 358.320312 L 257.183594 358.414062 M 257.183594 358.414062 L 256.332031 358.519531 M 258.550781 358.246094 L 257.953125 358.320312 M 260.445312 357.996094 L 260.042969 358.050781 M 260.042969 358.050781 L 258.550781 358.246094 M 262.921875 357.644531 L 262.9375 357.644531 M 262.9375 357.644531 L 262.9375 357.644531 M 260.753906 357.953125 L 260.445312 357.996094 M 262.921875 357.644531 L 260.753906 357.953125 M 262.9375 357.644531 L 262.941406 357.644531 M 262.941406 357.644531 L 265.097656 357.3125 M 265.097656 357.3125 L 265.429688 357.261719 M 265.429688 357.261719 L 265.890625 357.1875 M 265.890625 357.1875 L 267.238281 356.960938 M 267.238281 356.960938 L 267.921875 356.84375 M 267.921875 356.84375 L 268.898438 356.671875 M 268.898438 356.671875 L 269.355469 356.585938 M 269.355469 356.585938 L 270.414062 356.386719 M 271.449219 356.1875 L 270.414062 356.386719 M 272.90625 355.886719 L 271.980469 356.078125 M 271.980469 356.078125 L 271.449219 356.1875 M 273.515625 355.761719 L 272.90625 355.886719 M 275.398438 355.339844 L 275.160156 355.394531 M 275.160156 355.394531 L 273.515625 355.761719 M 276.191406 355.152344 L 277.558594 354.820312 M 277.558594 354.820312 L 277.890625 354.734375 M 275.550781 355.304688 L 275.398438 355.339844 M 276.191406 355.152344 L 275.550781 355.304688 M 277.890625 354.734375 L 278.457031 354.589844 M 278.457031 354.589844 L 279.535156 354.304688 M 279.535156 354.304688 L 280.382812 354.066406 M 281.476562 353.753906 L 280.382812 354.066406 M 282.878906 353.328125 L 281.917969 353.621094 M 281.917969 353.621094 L 281.476562 353.753906 M 284.910156 352.660156 L 285.25 352.542969 M 285.25 352.542969 L 285.371094 352.503906 M 283.382812 353.167969 L 282.878906 353.328125 M 284.910156 352.660156 L 283.382812 353.167969 M 285.371094 352.503906 L 285.613281 352.417969 M 285.613281 352.417969 L 287.082031 351.882812 M 287.082031 351.882812 L 287.863281 351.585938 M 288.875 351.183594 L 287.863281 351.585938 M 290.355469 350.566406 L 289.664062 350.859375 M 289.664062 350.859375 L 288.875 351.183594 M 291.25 350.167969 L 292.339844 349.664062 M 292.339844 349.664062 L 292.847656 349.421875 M 290.628906 350.445312 L 290.355469 350.566406 M 291.25 350.167969 L 290.628906 350.445312 M 294.015625 348.84375 L 292.847656 349.421875 M 295.339844 348.152344 L 294.335938 348.679688 M 294.335938 348.679688 L 294.015625 348.84375 M 296.203125 347.675781 L 297.238281 347.085938 M 297.238281 347.085938 L 297.832031 346.734375 M 295.644531 347.984375 L 295.339844 348.152344 M 296.203125 347.675781 L 295.644531 347.984375 M 296.984375 402.507812 L 297.257812 401.933594 M 297.257812 401.933594 L 297.832031 400.742188 M 296.460938 403.628906 L 296.242188 404.09375 M 296.242188 404.09375 L 295.828125 405 M 296.984375 402.507812 L 296.460938 403.628906 M 300.292969 345.183594 L 300.3125 345.171875 M 300.3125 345.171875 L 300.324219 345.164062 M 298.792969 346.148438 L 297.832031 346.734375 M 300.292969 345.183594 L 298.792969 346.148438 M 299.429688 397.523438 L 299.734375 396.933594 M 299.734375 396.933594 L 300.324219 395.796875 M 298.894531 398.585938 L 298.527344 399.316406 M 298.527344 399.316406 L 298.183594 400.015625 M 299.429688 397.523438 L 298.894531 398.585938 M 298.066406 400.253906 L 297.832031 400.742188 M 298.183594 400.015625 L 298.066406 400.253906 M 300.324219 345.164062 L 300.382812 345.125 M 300.382812 345.125 L 301.792969 344.164062 M 301.792969 344.164062 L 302.816406 343.433594 M 302.082031 392.539062 L 302.347656 392.070312 M 302.347656 392.070312 L 302.816406 391.242188 M 301.457031 393.671875 L 301.195312 394.160156 M 301.195312 394.160156 L 300.726562 395.03125 M 302.082031 392.539062 L 301.457031 393.671875 M 300.585938 395.296875 L 300.324219 395.796875 M 300.726562 395.03125 L 300.585938 395.296875 M 303.820312 342.691406 L 304.664062 342.046875 M 304.664062 342.046875 L 305.308594 341.542969 M 303.242188 343.121094 L 302.816406 343.433594 M 303.820312 342.691406 L 303.242188 343.121094 M 305.003906 387.554688 L 305.121094 387.367188 M 305.121094 387.367188 L 305.308594 387.066406 M 303.507812 390.046875 L 304.175781 388.914062 M 304.175781 388.914062 L 304.523438 388.335938 M 304.523438 388.335938 L 305.003906 387.554688 M 303.25 390.484375 L 302.816406 391.242188 M 303.507812 390.046875 L 303.25 390.484375 M 306.96875 340.199219 L 307.421875 339.820312 M 307.421875 339.820312 L 307.800781 339.503906 M 306.054688 340.949219 L 305.308594 341.542969 M 306.96875 340.199219 L 306.054688 340.949219 M 306.585938 385.0625 L 307.070312 384.332031 M 307.070312 384.332031 L 307.800781 383.25 M 306.085938 385.839844 L 305.308594 387.066406 M 306.585938 385.0625 L 306.085938 385.839844 M 309.863281 337.707031 L 310.089844 337.507812 M 310.089844 337.507812 L 310.292969 337.324219 M 308.765625 338.675781 L 307.800781 339.503906 M 309.863281 337.707031 L 308.765625 338.675781 M 310.058594 380.078125 L 310.160156 379.941406 M 310.160156 379.941406 L 310.292969 379.761719 M 308.269531 382.570312 L 309.105469 381.382812 M 309.105469 381.382812 L 309.414062 380.953125 M 309.414062 380.953125 L 310.058594 380.078125 M 308.078125 382.847656 L 307.800781 383.25 M 308.269531 382.570312 L 308.078125 382.847656 M 312.589844 335.214844 L 312.691406 335.121094 M 312.691406 335.121094 L 312.785156 335.03125 M 311.398438 336.320312 L 310.292969 337.324219 M 312.589844 335.214844 L 311.398438 336.320312 M 311.96875 377.585938 L 312.332031 377.132812 M 312.332031 377.132812 L 312.785156 376.570312 M 311.234375 378.527344 L 310.292969 379.761719 M 311.96875 377.585938 L 311.234375 378.527344 M 315.203125 332.722656 L 315.242188 332.6875 M 315.242188 332.6875 L 315.277344 332.652344 M 313.972656 333.910156 L 312.785156 335.03125 M 315.203125 332.722656 L 313.972656 333.910156 M 314.011719 375.09375 L 314.59375 374.410156 M 314.59375 374.410156 L 315.277344 373.628906 M 313.453125 375.761719 L 312.785156 376.570312 M 314.011719 375.09375 L 313.453125 375.761719 M 317.75 330.230469 L 317.757812 330.222656 M 317.757812 330.222656 L 317.769531 330.210938 M 316.503906 331.457031 L 315.277344 332.652344 M 317.75 330.230469 L 316.503906 331.457031 M 316.191406 372.601562 L 316.941406 371.773438 M 316.941406 371.773438 L 317.769531 370.878906 M 315.757812 373.082031 L 315.277344 373.628906 M 316.191406 372.601562 L 315.757812 373.082031 M 320.257812 327.738281 L 320.261719 327.738281 M 320.261719 327.738281 L 320.261719 327.734375 M 319.011719 328.980469 L 317.769531 330.210938 M 320.257812 327.738281 L 319.011719 328.980469 M 318.492188 370.109375 L 319.359375 369.203125 M 319.359375 369.203125 L 320.261719 368.269531 M 318.140625 370.480469 L 317.769531 370.878906 M 318.492188 370.109375 L 318.140625 370.480469 M 322.753906 325.246094 L 322.753906 325.246094 M 322.753906 325.246094 L 322.753906 325.246094 M 321.507812 326.492188 L 320.261719 327.734375 M 322.753906 325.246094 L 321.507812 326.492188 M 320.902344 367.617188 L 321.820312 366.683594 M 321.820312 366.683594 L 322.753906 365.746094 M 320.585938 367.9375 L 320.261719 368.269531 M 320.902344 367.617188 L 320.585938 367.9375 M 325.246094 322.753906 L 325.246094 322.753906 M 325.246094 322.753906 L 325.246094 322.753906 M 322.753906 325.246094 L 324 324 M 324 324 L 324 324 M 324 324 L 324 324 M 324 324 L 325.246094 322.753906 M 323.378906 365.121094 L 324.3125 364.1875 M 324.3125 364.1875 L 325.246094 363.253906 M 323.066406 365.433594 L 322.753906 365.746094 M 323.378906 365.121094 L 323.066406 365.433594 M 327.734375 320.261719 L 327.738281 320.261719 M 327.738281 320.261719 L 327.738281 320.257812 M 326.492188 321.507812 L 325.246094 322.753906 M 327.734375 320.261719 L 326.492188 321.507812 M 325.867188 362.628906 L 326.796875 361.691406 M 326.796875 361.691406 L 327.738281 360.730469 M 325.554688 362.941406 L 325.246094 363.253906 M 325.867188 362.628906 L 325.554688 362.941406 M 330.203125 317.769531 L 330.21875 317.757812 M 330.21875 317.757812 L 330.230469 317.742188 M 328.980469 319.011719 L 327.738281 320.257812 M 330.203125 317.769531 L 328.980469 319.011719 M 328.3125 360.136719 L 329.253906 359.160156 M 329.253906 359.160156 L 330.230469 358.121094 M 328.03125 360.429688 L 327.738281 360.730469 M 328.3125 360.136719 L 328.03125 360.429688 M 332.617188 315.277344 L 332.667969 315.222656 M 332.667969 315.222656 L 332.722656 315.164062 M 331.449219 316.496094 L 330.230469 317.742188 M 332.617188 315.277344 L 331.449219 316.496094 M 330.671875 357.644531 L 331.652344 356.574219 M 331.652344 356.574219 L 332.722656 355.375 M 330.460938 357.875 L 330.230469 358.121094 M 330.671875 357.644531 L 330.460938 357.875 M 334.917969 312.785156 L 335.058594 312.625 M 335.058594 312.625 L 335.214844 312.449219 M 333.875 313.933594 L 332.722656 315.164062 M 334.917969 312.785156 L 333.875 313.933594 M 335.027344 352.660156 L 335.113281 352.558594 M 335.113281 352.558594 L 335.214844 352.433594 M 332.914062 355.152344 L 333.980469 353.917969 M 333.980469 353.917969 L 334.089844 353.785156 M 334.089844 353.785156 L 335.027344 352.660156 M 332.824219 355.257812 L 332.722656 355.375 M 332.914062 355.152344 L 332.824219 355.257812 M 337.042969 310.292969 L 337.339844 309.925781 M 337.339844 309.925781 L 337.707031 309.457031 M 336.214844 311.292969 L 335.214844 312.449219 M 337.042969 310.292969 L 336.214844 311.292969 M 337.007812 350.167969 L 337.3125 349.773438 M 337.3125 349.773438 L 337.707031 349.253906 M 336.222656 351.175781 L 335.214844 352.433594 M 337.007812 350.167969 L 336.222656 351.175781 M 338.949219 307.800781 L 339.464844 307.0625 M 339.464844 307.0625 L 340.199219 305.960938 M 338.425781 308.515625 L 337.707031 309.457031 M 338.949219 307.800781 L 338.425781 308.515625 M 338.875 347.675781 L 339.429688 346.90625 M 339.429688 346.90625 L 340.199219 345.820312 M 338.382812 348.351562 L 337.707031 349.253906 M 338.875 347.675781 L 338.382812 348.351562 M 342.046875 302.816406 L 342.269531 302.390625 M 342.269531 302.390625 L 342.691406 301.558594 M 341.390625 304.003906 L 341.234375 304.273438 M 341.234375 304.273438 L 340.613281 305.308594 M 342.046875 302.816406 L 341.390625 304.003906 M 340.453125 305.5625 L 340.199219 305.960938 M 340.613281 305.308594 L 340.453125 305.5625 M 342.339844 342.691406 L 342.480469 342.480469 M 342.480469 342.480469 L 342.691406 342.164062 M 340.644531 345.183594 L 341.476562 343.96875 M 341.476562 343.96875 L 341.609375 343.777344 M 341.609375 343.777344 L 342.339844 342.691406 M 340.460938 345.445312 L 340.199219 345.820312 M 340.644531 345.183594 L 340.460938 345.445312 M 344.34375 297.832031 L 344.578125 297.226562 M 344.578125 297.226562 L 345.183594 295.578125 M 343.863281 299 L 343.75 299.265625 M 343.75 299.265625 L 343.28125 300.324219 M 344.34375 297.832031 L 343.863281 299 M 343.09375 300.722656 L 342.691406 301.558594 M 343.28125 300.324219 L 343.09375 300.722656 M 343.992188 340.199219 L 344.464844 339.480469 M 344.464844 339.480469 L 345.183594 338.398438 M 343.476562 340.984375 L 342.691406 342.164062 M 343.992188 340.199219 L 343.476562 340.984375 M 347.449219 287.863281 L 347.496094 287.679688 M 347.496094 287.679688 L 347.675781 286.921875 M 346.804688 290.355469 L 346.988281 289.664062 M 346.988281 289.664062 L 347.375 288.164062 M 347.375 288.164062 L 347.449219 287.863281 M 346.082031 292.847656 L 346.449219 291.617188 M 346.449219 291.617188 L 346.460938 291.570312 M 346.460938 291.570312 L 346.804688 290.355469 M 345.867188 293.53125 L 345.3125 295.210938 M 345.3125 295.210938 L 345.269531 295.339844 M 346.082031 292.847656 L 345.867188 293.53125 M 345.246094 295.402344 L 345.183594 295.578125 M 345.269531 295.339844 L 345.246094 295.402344 M 347.34375 335.214844 L 347.480469 335.019531 M 347.480469 335.019531 L 347.675781 334.742188 M 345.644531 337.707031 L 346.460938 336.492188 M 346.460938 336.492188 L 346.597656 336.296875 M 346.597656 336.296875 L 347.34375 335.214844 M 345.460938 337.984375 L 345.183594 338.398438 M 345.644531 337.707031 L 345.460938 337.984375 M 349.917969 275.398438 L 349.953125 275.183594 M 349.953125 275.183594 L 350.167969 273.8125 M 349.503906 277.890625 L 349.601562 277.324219 M 349.601562 277.324219 L 349.871094 275.699219 M 349.871094 275.699219 L 349.917969 275.398438 M 349.054688 280.382812 L 349.226562 279.441406 M 349.226562 279.441406 L 349.359375 278.699219 M 349.359375 278.699219 L 349.503906 277.890625 M 348.832031 281.539062 L 348.789062 281.765625 M 348.789062 281.765625 L 348.566406 282.878906 M 349.054688 280.382812 L 348.832031 281.539062 M 348.414062 283.613281 L 348.136719 284.910156 M 348.136719 284.910156 L 348.035156 285.371094 M 348.566406 282.878906 L 348.414062 283.613281 M 347.96875 285.660156 L 347.675781 286.921875 M 348.035156 285.371094 L 347.96875 285.660156 M 349.167969 332.722656 L 349.609375 332.160156 M 349.609375 332.160156 L 350.167969 331.472656 M 348.527344 333.570312 L 347.675781 334.742188 M 349.167969 332.722656 L 348.527344 333.570312 M 352.445312 255.460938 L 352.464844 255.265625 M 352.464844 255.265625 L 352.660156 253.273438 M 352.1875 257.953125 L 352.234375 257.523438 M 352.234375 257.523438 L 352.421875 255.703125 M 352.421875 255.703125 L 352.445312 255.460938 M 351.917969 260.445312 L 351.992188 259.777344 M 351.992188 259.777344 L 352.132812 258.484375 M 352.132812 258.484375 L 352.1875 257.953125 M 351.632812 262.9375 L 351.738281 262.015625 M 351.738281 262.015625 L 351.820312 261.285156 M 351.820312 261.285156 L 351.917969 260.445312 M 351.328125 265.429688 L 351.476562 264.246094 M 351.476562 264.246094 L 351.492188 264.109375 M 351.492188 264.109375 L 351.632812 262.9375 M 351.199219 266.460938 L 351.136719 266.957031 M 351.136719 266.957031 L 351.007812 267.921875 M 351.328125 265.429688 L 351.199219 266.460938 M 350.910156 268.664062 L 350.75 269.835938 M 350.75 269.835938 L 350.667969 270.414062 M 351.007812 267.921875 L 350.910156 268.664062 M 350.605469 270.851562 L 350.332031 272.746094 M 350.332031 272.746094 L 350.308594 272.90625 M 350.667969 270.414062 L 350.605469 270.851562 M 350.289062 273.027344 L 350.167969 273.8125 M 350.308594 272.90625 L 350.289062 273.027344 M 351.25 330.230469 L 351.9375 329.507812 M 351.9375 329.507812 L 352.660156 328.796875 M 350.742188 330.800781 L 350.167969 331.472656 M 351.25 330.230469 L 350.742188 330.800781 M 353.566406 243 L 353.566406 243 M 353.566406 243 L 353.566406 243 M 353.566406 243 L 353.566406 243 M 353.5 243.835938 L 353.425781 244.726562 M 353.425781 244.726562 L 353.363281 245.492188 M 353.566406 243 L 353.5 243.835938 M 353.308594 246.136719 L 353.195312 247.453125 M 353.195312 247.453125 L 353.148438 247.984375 M 353.363281 245.492188 L 353.308594 246.136719 M 353.109375 248.433594 L 352.953125 250.1875 M 352.953125 250.1875 L 352.925781 250.476562 M 353.148438 247.984375 L 353.109375 248.433594 M 352.902344 250.71875 L 352.695312 252.9375 M 352.695312 252.9375 L 352.691406 252.96875 M 352.925781 250.476562 L 352.902344 250.71875 M 352.6875 252.996094 L 352.660156 253.273438 M 352.691406 252.96875 L 352.6875 252.996094 M 353.871094 327.738281 L 354.597656 327.179688 M 354.597656 327.179688 L 355.152344 326.785156 M 353.214844 328.292969 L 352.660156 328.796875 M 353.871094 327.738281 L 353.214844 328.292969 M 356.097656 326.191406 L 355.152344 326.785156 M 357.644531 325.394531 L 357.371094 325.519531 M 357.371094 325.519531 L 356.097656 326.191406 M 357.988281 325.246094 L 359.574219 324.683594 M 359.574219 324.683594 L 360.136719 324.527344 M 357.75 325.347656 L 357.644531 325.394531 M 357.988281 325.246094 L 357.75 325.347656 M 360.136719 324.527344 L 361.066406 324.316406 M 361.066406 324.316406 L 361.605469 324.222656 M 361.605469 324.222656 L 362.628906 324.089844 M 362.628906 324.089844 L 363.867188 324.011719 M 363.867188 324.011719 L 363.886719 324.007812 M 363.886719 324.007812 L 365.121094 324.007812 M 365.121094 324.007812 L 366.292969 324.074219 M 366.292969 324.074219 L 366.460938 324.089844 M 366.460938 324.089844 L 367.617188 324.222656 M 367.617188 324.222656 L 368.5 324.359375 M 368.5 324.359375 L 369.386719 324.527344 M 369.386719 324.527344 L 370.109375 324.683594 M 370.109375 324.683594 L 370.5625 324.789062 M 370.5625 324.789062 L 372.257812 325.246094 M 372.601562 325.347656 L 372.519531 325.324219 M 372.519531 325.324219 L 372.257812 325.246094 M 372.746094 325.394531 L 372.601562 325.347656 M 375.09375 326.191406 L 374.398438 325.941406 M 374.398438 325.941406 L 372.746094 325.394531 M 375.09375 326.191406 L 376.210938 326.617188 M 376.210938 326.617188 L 376.632812 326.785156 M 376.632812 326.785156 L 377.585938 327.179688 M 377.585938 327.179688 L 377.976562 327.347656 M 377.976562 327.347656 L 378.867188 327.738281 M 380.078125 328.289062 L 379.699219 328.117188 M 379.699219 328.117188 L 378.867188 327.738281 M 381.128906 328.789062 L 380.078125 328.289062 M 382.570312 329.5 L 381.390625 328.917969 M 381.390625 328.917969 L 381.128906 328.789062 M 382.570312 329.5 L 383.054688 329.746094 M 383.054688 329.746094 L 384 330.230469 M 385.0625 330.785156 L 384.695312 330.59375 M 384.695312 330.59375 L 384 330.230469 M 386.257812 331.425781 L 385.0625 330.785156 M 387.554688 332.132812 L 386.324219 331.460938 M 386.324219 331.460938 L 386.257812 331.425781 M 387.554688 332.132812 L 387.9375 332.339844 M 387.9375 332.339844 L 388.628906 332.722656 M 390.046875 333.511719 L 389.539062 333.230469 M 389.539062 333.230469 L 388.628906 332.722656 M 390.046875 333.511719 L 391.136719 334.125 M 391.136719 334.125 L 391.851562 334.527344 M 391.851562 334.527344 L 392.539062 334.917969 M 392.539062 334.917969 L 392.730469 335.023438 M 392.730469 335.023438 L 393.066406 335.214844 M 395.03125 336.324219 L 394.320312 335.925781 M 394.320312 335.925781 L 393.066406 335.214844 M 395.03125 336.324219 L 395.914062 336.824219 M 395.914062 336.824219 L 397.492188 337.707031 M 397.523438 337.726562 L 397.511719 337.71875 M 397.511719 337.71875 L 397.492188 337.707031 M 397.5625 337.746094 L 397.523438 337.726562 M 400.015625 339.105469 L 399.113281 338.609375 M 399.113281 338.609375 L 397.5625 337.746094 M 400.015625 339.105469 L 400.722656 339.492188 M 400.722656 339.492188 L 402.039062 340.199219 M 402.507812 340.449219 L 402.34375 340.363281 M 402.34375 340.363281 L 402.039062 340.199219 M 403.042969 340.734375 L 402.507812 340.449219 M 405 341.757812 L 403.976562 341.226562 M 403.976562 341.226562 L 403.042969 340.734375 " transform="matrix(1,0,0,-1,-241,407)"/>
</g>
</svg>
